<?xml version="1.0" encoding="iso-8859-1"?>
<!-- Generator: Adobe Illustrator 19.0.0, SVG Export Plug-In . SVG Version: 6.00 Build 0)  -->
<svg version="1.1" id="Layer_1" xmlns="http://www.w3.org/2000/svg" xmlns:xlink="http://www.w3.org/1999/xlink" x="0px" y="0px"
	 viewBox="0 0 512 512" style="enable-background:new 0 0 512 512;" xml:space="preserve">
<circle style="fill:#FFD500;" cx="182.066" cy="254.633" r="133.956"/>
<path style="fill:#FFFFFF;" d="M437.094,388.998c35.737,0,64.707-28.971,64.707-64.707s-28.971-64.707-64.707-64.707
	c-3.333,0-6.608,0.253-9.806,0.739c-0.024-30.734-24.946-55.642-55.686-55.642c-12.936,0-24.831,4.423-34.285,11.823
	c-14.135-18.171-36.206-29.862-61.011-29.862c-41.372,0-75.148,32.521-77.16,73.394c-2.477-0.288-4.993-0.453-7.547-0.453
	c-35.737,0-64.707,28.971-64.707,64.707s28.971,64.707,64.707,64.707H437.094z"/>
<g>
	<path style="fill:#3D3D3D;" d="M182.529,103.322c5.633,0,10.199-4.566,10.199-10.199V82.262c0-5.633-4.566-10.199-10.199-10.199
		c-5.633,0-10.199,4.566-10.199,10.199v10.861C172.33,98.756,176.896,103.322,182.529,103.322z"/>
	<path style="fill:#3D3D3D;" d="M111.315,109.317c1.627,3.928,5.424,6.299,9.427,6.299c1.3,0,2.623-0.25,3.899-0.779
		c5.205-2.155,7.676-8.122,5.52-13.325l-4.156-10.034c-2.155-5.204-8.123-7.678-13.325-5.52c-5.205,2.155-7.676,8.122-5.52,13.325
		L111.315,109.317z"/>
	<path style="fill:#3D3D3D;" d="M60.961,147.447c1.992,1.992,4.602,2.987,7.212,2.987c2.61,0,5.221-0.996,7.212-2.987
		c3.983-3.983,3.983-10.441,0-14.424l-13.111-13.111c-3.983-3.983-10.441-3.983-14.424,0s-3.983,10.441,0,14.424L60.961,147.447z"/>
	<path style="fill:#3D3D3D;" d="M19.414,198.066l10.034,4.156c1.276,0.529,2.598,0.779,3.899,0.779c4.002,0,7.799-2.371,9.427-6.299
		c2.155-5.204-0.316-11.17-5.52-13.325l-10.034-4.156c-5.203-2.154-11.17,0.316-13.325,5.52
		C11.738,189.944,14.211,195.91,19.414,198.066z"/>
	<path style="fill:#3D3D3D;" d="M31.26,254.592c0-5.633-4.566-10.199-10.199-10.199H10.199C4.566,244.392,0,248.958,0,254.592
		c0,5.633,4.566,10.199,10.199,10.199H21.06C26.693,264.791,31.26,260.225,31.26,254.592z"/>
	<path style="fill:#3D3D3D;" d="M29.449,306.959l-10.034,4.156c-5.205,2.155-7.676,8.122-5.52,13.325
		c1.627,3.928,5.424,6.299,9.427,6.299c1.3,0,2.623-0.25,3.899-0.779l10.034-4.156c5.205-2.155,7.675-8.122,5.52-13.325
		S34.652,304.802,29.449,306.959z"/>
	<path style="fill:#3D3D3D;" d="M61.142,361.555l-7.68,7.68c-3.983,3.983-3.984,10.441,0,14.424
		c1.992,1.992,4.602,2.987,7.212,2.987s5.22-0.996,7.212-2.987l7.68-7.68c3.983-3.983,3.984-10.441,0-14.424
		C71.584,357.572,65.126,357.573,61.142,361.555z"/>
	<path style="fill:#3D3D3D;" d="M124.523,394.629c-5.202-2.156-11.17,0.316-13.325,5.52l-7.674,18.527
		c-2.155,5.205,0.316,11.17,5.52,13.325c1.276,0.529,2.598,0.779,3.899,0.779c4.002,0,7.8-2.371,9.427-6.299l7.674-18.527
		C132.198,402.75,129.727,396.785,124.523,394.629z"/>
	<path style="fill:#3D3D3D;" d="M177.363,408.678c-5.633,0-10.199,4.566-10.199,10.199v10.861c0,5.633,4.566,10.199,10.199,10.199
		s10.199-4.566,10.199-10.199v-10.861C187.562,413.244,182.996,408.678,177.363,408.678z"/>
	<path style="fill:#3D3D3D;" d="M297.316,150.004c2.611,0,5.221-0.996,7.212-2.987l9.753-9.755c3.983-3.983,3.983-10.441,0-14.424
		c-3.984-3.983-10.442-3.983-14.425,0l-9.754,9.755c-3.983,3.983-3.983,10.441,0,14.424
		C292.096,149.008,294.705,150.004,297.316,150.004z"/>
	<path style="fill:#3D3D3D;" d="M240.418,114.837c1.276,0.529,2.598,0.779,3.899,0.779c4.002,0,7.799-2.371,9.427-6.299
		l4.156-10.034c2.155-5.204-0.316-11.17-5.52-13.325c-5.203-2.156-11.17,0.316-13.325,5.52l-4.156,10.034
		C232.742,106.714,235.213,112.681,240.418,114.837z"/>
	<path style="fill:#3D3D3D;" d="M437.085,399.197c0.003,0,0.006,0,0.009,0c41.304,0,74.906-33.603,74.906-74.906
		s-33.602-74.906-74.906-74.906c-0.173,0-0.348,0-0.521,0.002c-5.246-31.118-32.393-54.905-64.97-54.905
		c-11.564,0-22.63,2.934-32.482,8.554c-9.257-9.586-20.418-16.813-32.689-21.297c-25.848-44.012-73.252-71.257-124.364-71.257
		c-79.486,0-144.152,64.667-144.152,144.152c0,79.599,64.667,144.357,144.152,144.357L437.085,399.197z M58.313,254.635
		c0-68.239,55.516-123.754,123.754-123.754c37.486,0,72.657,17.069,95.95,45.604c-0.571-0.011-1.138-0.043-1.711-0.043
		c-43.244,0-79.35,31.312-86.262,72.958c-40.589,0.83-73.352,34.106-73.352,74.891c0,15.982,5.075,30.794,13.679,42.956
		C87.877,347.595,58.313,304.512,58.313,254.635z M437.102,378.798l-245.503-0.204c-30.056,0-54.508-24.361-54.508-54.304
		c0-30.056,24.453-54.508,54.508-54.508c2.063,0,4.146,0.125,6.368,0.385c2.806,0.327,5.619-0.524,7.773-2.349
		c2.154-1.825,3.455-4.461,3.593-7.28c1.758-35.719,31.176-63.697,66.974-63.697c20.841,0,40.143,9.45,52.961,25.925
		c1.663,2.14,4.11,3.528,6.801,3.86c2.696,0.33,5.401-0.421,7.536-2.091c8.069-6.316,17.75-9.655,27.998-9.655
		c25.061,0,45.467,20.389,45.487,45.452c0.002,2.971,1.3,5.793,3.554,7.729c2.253,1.935,5.238,2.794,8.178,2.346
		c2.722-0.414,5.505-0.623,8.272-0.623c30.056,0,54.508,24.453,54.508,54.508C491.602,354.344,467.152,378.795,437.102,378.798z"/>
	<path style="fill:#3D3D3D;" d="M403.016,347.793H286.598c-5.632,0-10.199,4.566-10.199,10.199s4.567,10.199,10.199,10.199h116.419
		c5.632,0,10.199-4.566,10.199-10.199S408.648,347.793,403.016,347.793z"/>
	<path style="fill:#3D3D3D;" d="M441.51,347.793h-4.695c-5.632,0-10.199,4.566-10.199,10.199s4.567,10.199,10.199,10.199h4.695
		c5.632,0,10.199-4.566,10.199-10.199S447.142,347.793,441.51,347.793z"/>
</g>
<g>
</g>
<g>
</g>
<g>
</g>
<g>
</g>
<g>
</g>
<g>
</g>
<g>
</g>
<g>
</g>
<g>
</g>
<g>
</g>
<g>
</g>
<g>
</g>
<g>
</g>
<g>
</g>
<g>
</g>
</svg>
