<?xml version="1.0" encoding="iso-8859-1"?>
<!-- Generator: Adobe Illustrator 19.0.0, SVG Export Plug-In . SVG Version: 6.00 Build 0)  -->
<svg version="1.1" id="Layer_1" xmlns="http://www.w3.org/2000/svg" xmlns:xlink="http://www.w3.org/1999/xlink" x="0px" y="0px"
	 viewBox="0 0 511.999 511.999" style="enable-background:new 0 0 511.999 511.999;" xml:space="preserve">
<path style="fill:#FFFFFF;" d="M416.954,300.365c46.86,0,84.847-37.988,84.847-84.847s-37.988-84.847-84.847-84.847
	c-4.371,0-8.664,0.333-12.857,0.97c-0.033-40.301-32.711-72.961-73.019-72.961c-16.962,0-32.56,5.799-44.956,15.503
	c-18.535-23.826-47.476-39.157-80.001-39.157c-54.25,0-98.539,42.644-101.177,96.24c-3.248-0.377-6.546-0.594-9.896-0.594
	c-46.86,0-84.847,37.988-84.847,84.847s37.988,84.847,84.847,84.847h321.906V300.365z"/>
<g>
	<path style="fill:#3D3D3D;" d="M416.954,120.471c-1.134,0-2.269,0.02-3.405,0.061c-5.477-40.62-40.386-72.053-82.472-72.053
		c-15.446,0-30.19,4.145-43.161,12.065C266.84,37.73,237.533,24.825,206.12,24.825c-56.038,0-102.677,41.25-110.385,95.649
		c-0.231-0.002-0.46-0.003-0.688-0.003C42.638,120.471,0,163.109,0,215.517s42.638,95.046,95.046,95.046h32.462l-77.605,77.605
		c-3.983,3.983-3.983,10.441,0,14.425c1.992,1.992,4.602,2.987,7.212,2.987s5.221-0.995,7.212-2.987l92.029-92.029h27.247
		L24.406,469.762c-3.983,3.983-3.983,10.441,0,14.425c1.992,1.992,4.602,2.987,7.212,2.987s5.221-0.995,7.212-2.987l173.623-173.623
		h29.287l-77.605,77.605c-3.983,3.983-3.983,10.441,0,14.425c1.992,1.992,4.602,2.987,7.212,2.987c2.61,0,5.221-0.995,7.212-2.987
		l92.029-92.029h28.267L139.657,469.762c-3.983,3.983-3.983,10.441,0,14.425c1.992,1.992,4.602,2.987,7.212,2.987
		c2.61,0,5.221-0.995,7.212-2.987l173.623-173.623h27.247l-77.605,77.605c-3.983,3.983-3.983,10.441,0,14.425
		c1.992,1.992,4.602,2.987,7.212,2.987c2.61,0,5.221-0.995,7.212-2.987l92.029-92.029h33.154c52.409,0,95.046-42.638,95.046-95.046
		S469.362,120.471,416.954,120.471z M416.954,290.165H95.046c-41.161,0-74.648-33.487-74.648-74.648s33.487-74.648,74.648-74.648
		c2.827,0,5.679,0.171,8.719,0.525c2.803,0.326,5.617-0.524,7.771-2.35c2.153-1.825,3.454-4.461,3.593-7.28
		c2.389-48.528,42.356-86.542,90.99-86.542c28.313,0,54.538,12.837,71.95,35.22c1.665,2.139,4.111,3.528,6.801,3.86
		c2.686,0.33,5.4-0.42,7.535-2.091c11.146-8.723,24.518-13.334,38.67-13.334c34.611,0,62.791,28.158,62.82,62.77
		c0.002,2.972,1.3,5.794,3.554,7.73c2.254,1.935,5.241,2.791,8.178,2.346c3.724-0.566,7.534-0.853,11.324-0.853
		c41.161,0,74.648,33.487,74.648,74.648C491.602,256.678,458.115,290.165,416.954,290.165z"/>
	<path style="fill:#3D3D3D;" d="M221.032,257.255H93.504c-5.633,0-10.199,4.566-10.199,10.199s4.566,10.199,10.199,10.199h127.529
		c5.633,0,10.199-4.566,10.199-10.199S226.665,257.255,221.032,257.255z"/>
	<path style="fill:#3D3D3D;" d="M263.2,257.255h-5.142c-5.633,0-10.199,4.566-10.199,10.199s4.566,10.199,10.199,10.199h5.142
		c5.633,0,10.199-4.566,10.199-10.199S268.833,257.255,263.2,257.255z"/>
</g>
<g>
</g>
<g>
</g>
<g>
</g>
<g>
</g>
<g>
</g>
<g>
</g>
<g>
</g>
<g>
</g>
<g>
</g>
<g>
</g>
<g>
</g>
<g>
</g>
<g>
</g>
<g>
</g>
<g>
</g>
</svg>
